<svg width="120" height="120" viewBox="0 0 120 120" fill="none" xmlns="http://www.w3.org/2000/svg">
<rect width="120" height="120" rx="12" fill="#5CBB73"/>
<path d="M52.2767 21.5364C56.5422 19.4879 63.4578 19.4879 67.7233 21.5364L110.201 41.9364C116.6 45.0091 116.6 49.9909 110.201 53.0636L67.7233 73.4636C63.4578 75.5121 56.5422 75.5121 52.2767 73.4636L9.79864 53.0636C3.40045 49.9909 3.40045 45.0091 9.79864 41.9364L52.2767 21.5364Z" fill="white"/>
<rect x="26" y="58" width="68" height="27" fill="white"/>
<path d="M60 97.5C67.777 97.5 74.9767 96.2803 80.3604 94.1866C83.0412 93.1441 85.4494 91.8165 87.2471 90.1636C89.0478 88.5079 90.5 86.26 90.5 83.5C90.5 80.74 89.0478 78.4921 87.2471 76.8364C85.4494 75.1835 83.0412 73.8559 80.3604 72.8134C74.9767 70.7197 67.777 69.5 60 69.5C52.223 69.5 45.0233 70.7197 39.6396 72.8134C36.9588 73.8559 34.5506 75.1835 32.7529 76.8364C30.9522 78.4921 29.5 80.74 29.5 83.5C29.5 86.26 30.9522 88.5079 32.7529 90.1636C34.5506 91.8165 36.9588 93.1441 39.6396 94.1866C45.0233 96.2803 52.223 97.5 60 97.5Z" fill="#5CBB73" stroke="white" stroke-width="7"/>
</svg>
